<?xml version="1.0" standalone="no"?>
<!DOCTYPE svg PUBLIC "-//W3C//DTD SVG 20010904//EN"
 "http://www.w3.org/TR/2001/REC-SVG-20010904/DTD/svg10.dtd">
<svg version="1.0" xmlns="http://www.w3.org/2000/svg"
 width="700.000000pt" height="700.000000pt" viewBox="0 0 700.000000 700.000000"
 preserveAspectRatio="xMidYMid meet">
<metadata>
Created by potrace 1.11, written by Peter Selinger 2001-2013
</metadata>
<g transform="translate(0.000000,700.000000) scale(0.100000,-0.100000)"
fill="#000000" stroke="none">
<path d="M1465 4381 c-479 -479 -870 -875 -870 -881 0 -8 1596 -1614 1719
-1729 l22 -20 203 203 203 204 -671 671 -671 671 671 671 671 671 -203 204
-204 204 -870 -869z"/>
<path d="M4461 5046 l-203 -204 671 -671 671 -671 -671 -671 -671 -671 203
-204 204 -204 872 872 c480 480 873 876 873 879 0 4 -1727 1734 -1743 1746 -2
1 -94 -89 -206 -201z"/>
</g>
</svg>
